Coordinates
version=1
nRows=14
nColumns=40
inDegrees=yes

Units are S.I. units (second, meters, Newtons, ...)
If the header above contains a line with 'inDegrees', this indicates whether rotational values are in degrees (yes) or radians (no).

endheader
time	pelvis_tilt	pelvis_list	pelvis_rotation	pelvis_tx	pelvis_ty	pelvis_tz	hip_flexion_r	hip_adduction_r	hip_rotation_r	knee_angle_r	knee_angle_r_beta	ankle_angle_r	subtalar_angle_r	mtp_angle_r	hip_flexion_l	hip_adduction_l	hip_rotation_l	knee_angle_l	knee_angle_l_beta	ankle_angle_l	subtalar_angle_l	mtp_angle_l	lumbar_extension	lumbar_bending	lumbar_rotation	arm_flex_r	arm_add_r	arm_rot_r	elbow_flex_r	pro_sup_r	wrist_flex_r	wrist_dev_r	arm_flex_l	arm_add_l	arm_rot_l	elbow_flex_l	pro_sup_l	wrist_flex_l	wrist_dev_l
      0.31200000	     81.02618039	     77.37112582	    -80.30745030	      0.56302777	      0.29147635	      0.97112296	     -7.12102713	      4.47958978	     -4.07602854	     15.85688655	      0.27675488	     -5.29237004	      0.00000000	      0.00000000	     -0.38803796	     -6.98799219	     -2.51451941	     57.84699542	      1.00962053	    -12.92964768	      0.00000000	      0.00000000	    -23.50431292	      3.16051629	     -0.97713123	      3.49306703	    -16.77653011	     14.60975599	     38.82694782	     75.27108313	      0.00000000	      0.00000000	      2.92166585	    -20.73130347	     23.75313879	     44.32169339	     74.73184677	      0.00000000	      0.00000000
      0.31600000	     81.62929506	     76.93999102	    -80.71372349	      0.56942716	      0.29135867	      0.97242053	     -8.67939832	      4.54438244	     -4.09267306	     14.44429661	      0.25210053	     -5.94229546	      0.00000000	      0.00000000	     -0.42790898	     -6.91431756	     -2.42208819	     57.36519487	      1.00121153	    -11.72644210	      0.00000000	      0.00000000	    -23.86725467	      3.10031064	     -1.14219684	      3.58717573	    -16.87660637	     15.09988698	     39.05352048	     75.24384429	      0.00000000	      0.00000000	      2.56620161	    -20.82681470	     23.38184987	     44.46294318	     74.72513261	      0.00000000	      0.00000000
      0.32000000	     81.61018410	     77.00053204	    -81.12348648	      0.57360308	      0.29107350	      0.97287273	     -9.00622557	      4.48137484	     -3.49294805	     14.28242214	      0.24927529	     -5.89056655	      0.00000000	      0.00000000	      0.25862712	     -6.69856448	     -2.54151221	     57.14074950	      0.99729422	    -11.71551652	      0.00000000	      0.00000000	    -23.96886570	      2.95419929	     -0.59868823	      3.84210230	    -17.12700658	     15.29936669	     39.41047187	     75.25952487	      0.00000000	      0.00000000	      2.70685270	    -20.70214324	     23.36759642	     44.25078284	     74.71766613	      0.00000000	      0.00000000
      0.32400000	     81.59759554	     77.01896489	    -81.20576407	      0.57848163	      0.29049071	      0.97331936	     -9.36715475	      4.49612449	     -3.62897471	     14.19179822	      0.24769361	     -5.83831097	      0.00000000	      0.00000000	      0.95354200	     -6.73947348	     -2.71907928	     56.83403728	      0.99194108	    -11.39732089	      0.00000000	      0.00000000	    -24.01250466	      2.85551609	     -0.35683329	      4.07196017	    -17.12908858	     15.29846918	     39.54630554	     75.25262086	      0.00000000	      0.00000000	      2.64047543	    -20.83924715	     23.34697191	     44.26192111	     74.71444938	      0.00000000	      0.00000000
      0.32800000	     81.75643155	     77.16748985	    -81.47394983	      0.58438975	      0.29018557	      0.97341801	     -9.90926799	      4.45907345	     -3.43311576	     13.59250527	      0.23723397	     -5.88670616	      0.00000000	      0.00000000	      1.60598577	     -6.65688822	     -2.88964539	     56.54560605	      0.98690700	    -10.17758266	      0.00000000	      0.00000000	    -23.78323962	      2.72303322	     -0.13781294	      4.06203465	    -17.25613697	     15.49970465	     39.76378466	     75.21417807	      0.00000000	      0.00000000	      2.46163348	    -20.82468981	     23.32119168	     44.13514201	     74.66275758	      0.00000000	      0.00000000
      0.33200000	     82.12172575	     76.69263575	    -82.16479789	      0.59049104	      0.28948789	      0.97458708	    -11.27725999	      4.44969625	     -2.96797107	     12.69317840	      0.22153776	     -6.25270907	      0.00000000	      0.00000000	      1.33491390	     -6.60444925	     -3.29117749	     55.79290522	      0.97376990	     -9.80089931	      0.00000000	      0.00000000	    -24.24210382	      2.52848190	      0.25409588	      4.11754278	    -17.38539579	     15.72385705	     40.09698217	     74.84380528	      0.00000000	      0.00000000	      2.22895608	    -20.89317098	     23.17279386	     44.24424875	     73.50556654	      0.00000000	      0.00000000
      0.33600000	     82.09532855	     76.70157121	    -82.19712221	      0.59522322	      0.28916972	      0.97484269	    -11.62314848	      4.44918446	     -3.08941122	     12.64024093	      0.22061382	     -6.20419082	      0.00000000	      0.00000000	      2.01897465	     -6.59251409	     -3.36705847	     55.46653584	      0.96807368	     -9.62430501	      0.00000000	      0.00000000	    -24.31208352	      2.47384680	      0.43139792	      4.37388719	    -17.42500951	     15.71872455	     40.22447695	     74.84297476	      0.00000000	      0.00000000	      2.20849322	    -20.98210133	     23.17524120	     44.23671035	     73.52038320	      0.00000000	      0.00000000
      0.34000000	     82.05439166	     76.86889678	    -82.24164332	      0.60054103	      0.28891579	      0.97491308	    -11.93539200	      4.42437006	     -3.19365002	     12.36843298	      0.21586988	     -6.08899433	      0.00000000	      0.00000000	      2.69120046	     -6.47677033	     -3.34502515	     54.90825830	      0.95832989	     -9.21498794	      0.00000000	      0.00000000	    -24.13540140	      2.38413998	      0.67724437	      4.43939757	    -17.51947209	     15.82530505	     40.45464908	     74.84552080	      0.00000000	      0.00000000	      2.08330459	    -20.99789085	     23.11570148	     44.26826950	     73.47340467	      0.00000000	      0.00000000
      0.34400000	     82.01151212	     76.87384440	    -82.26911926	      0.60524225	      0.28867296	      0.97500368	    -12.29060604	      4.43085798	     -3.32297012	     12.28352825	      0.21438801	     -6.03490222	      0.00000000	      0.00000000	      3.32072415	     -6.37746443	     -3.27512331	     54.60921194	      0.95311055	     -9.15422124	      0.00000000	      0.00000000	    -24.20726444	      2.33792940	      0.86511419	      4.69441808	    -17.59286609	     15.83420591	     40.60041009	     74.84442621	      0.00000000	      0.00000000	      2.05337633	    -21.11842135	     23.08372555	     44.21613788	     73.47015291	      0.00000000	      0.00000000
      0.34800000	     82.64506400	     76.55266714	    -82.40929162	      0.61138299	      0.28911169	      0.97576273	    -13.69421504	      4.49540168	     -3.59206838	     10.97845257	      0.19161014	     -6.52139019	      0.00000000	      0.00000000	      3.37853841	     -6.14127866	     -2.74999993	     53.77223609	      0.93850257	     -8.97951880	      0.00000000	      0.00000000	    -24.46275259	      2.37069348	      0.38801972	      4.81887372	    -17.68302417	     16.35480022	     40.89364120	     74.56160251	      0.00000000	      0.00000000	      1.66949403	    -21.19099158	     22.72826741	     44.45402920	     73.04852688	      0.00000000	      0.00000000
      0.35200000	     82.58550081	     76.64223395	    -82.46191700	      0.61625063	      0.28883370	      0.97574192	    -14.00541669	      4.48547279	     -3.70079908	     10.83149018	      0.18904517	     -6.38690220	      0.00000000	      0.00000000	      4.04763225	     -6.08360010	     -2.84567077	     53.24979367	      0.92938423	     -8.56830523	      0.00000000	      0.00000000	    -24.43073723	      2.28572072	      0.64285244	      4.99942990	    -17.77919465	     16.41568049	     41.01427448	     74.56019132	      0.00000000	      0.00000000	      1.62390219	    -21.24358207	     22.75765633	     44.54895657	     73.07123341	      0.00000000	      0.00000000
      0.35600000	     82.54175561	     76.66557135	    -82.46889467	      0.62083078	      0.28847502	      0.97575594	    -14.32339817	      4.49319372	     -3.79167250	     10.75712208	      0.18774720	     -6.33541986	      0.00000000	      0.00000000	      4.71458105	     -6.06998365	     -2.92292422	     52.82101487	      0.92190062	     -8.38896089	      0.00000000	      0.00000000	    -24.51199318	      2.22095557	      0.82084003	      5.25756081	    -17.77000097	     16.48070102	     41.19895255	     74.59288163	      0.00000000	      0.00000000	      1.64682860	    -21.33406566	     22.74621192	     44.52710972	     73.07170638	      0.00000000	      0.00000000
      0.36000000	     82.46351859	     76.80944865	    -82.40120759	      0.62641815	      0.28852021	      0.97565832	    -14.71263525	      4.47795201	     -3.76687213	     10.45477943	      0.18247032	     -6.24496681	      0.00000000	      0.00000000	      5.23575136	     -5.91343184	     -2.80818853	     52.02258073	      0.90796532	     -8.23545746	      0.00000000	      0.00000000	    -24.29883675	      2.20379186	      0.95799218	      5.31394256	    -17.96794726	     16.59787943	     41.42859107	     74.58343193	      0.00000000	      0.00000000	      1.47984931	    -21.30966439	     22.70445970	     44.46752047	     73.05075501	      0.00000000	      0.00000000
      0.36400000	     82.28224971	     76.34438936	    -82.23900741	      0.63228500	      0.28814615	      0.97634944	    -16.14320313	      4.67053218	     -3.35588044	      9.31922789	      0.16265121	     -6.83804903	      0.00000000	      0.00000000	      5.08606166	     -6.02792657	     -2.99820102	     51.30061353	      0.89536461	     -7.83023695	      0.00000000	      0.00000000	    -24.74487253	      2.25874147	      1.06239850	      5.47309937	    -18.09208050	     16.91312571	     41.72423103	     74.35929467	      0.00000000	      0.00000000	      1.22859727	    -21.38929821	     22.43403322	     44.62792421	     72.84453767	      0.00000000	      0.00000000
